<svg xmlns="http://www.w3.org/2000/svg" viewBox="0 0 32 32"><defs><style>.cls-1{fill:#fff;}.cls-2{fill:#00355f;}</style></defs><title>culture-site-white</title><g id="back"><circle class="cls-1" cx="16" cy="16" r="15"/></g><g id="Layer_1" data-name="Layer 1"><rect class="cls-2" x="11" y="16.42" width="10" height="0.6" rx="0.16" ry="0.16"/><path class="cls-2" d="M20.65,16h-9.3a.36.36,0,0,1-.35-.36v-.46a.37.37,0,0,1,.17-.31l4.65-2.82a.33.33,0,0,1,.36,0l4.65,2.82a.37.37,0,0,1,.17.31v.46A.36.36,0,0,1,20.65,16Z"/><path class="cls-2" d="M11,17.42V23.8a.2.2,0,0,0,.2.2H15V21a1,1,0,0,1,2,0v3h3.8a.2.2,0,0,0,.2-.2V17.42Z"/><path class="cls-2" d="M9.64,24H7.36A.37.37,0,0,1,7,23.61V10.2A.37.37,0,0,1,7.06,10l1.1-1.82a.39.39,0,0,1,.68,0L9.94,10a.37.37,0,0,1,.06.21V23.61A.37.37,0,0,1,9.64,24ZM9.26,13.54V12.16A.16.16,0,0,0,9.1,12H7.87a.16.16,0,0,0-.16.16v1.38a.16.16,0,0,0,.16.16H9.1A.16.16,0,0,0,9.26,13.54Zm0,2.2V14.45a.2.2,0,0,0-.2-.2H7.91a.2.2,0,0,0-.2.2v1.29a.2.2,0,0,0,.2.2H9.06A.2.2,0,0,0,9.26,15.74Z"/><path class="cls-2" d="M24.64,24H22.36a.38.38,0,0,1-.36-.39V10.22a.42.42,0,0,1,.06-.21l1.1-1.82a.4.4,0,0,1,.68,0L24.94,10a.42.42,0,0,1,.06.21V23.64A.38.38,0,0,1,24.64,24Zm-.38-10.46V12.19A.16.16,0,0,0,24.1,12H22.87a.16.16,0,0,0-.16.16v1.38a.17.17,0,0,0,.16.16H24.1A.16.16,0,0,0,24.26,13.57Zm0,2.2v-1.3a.2.2,0,0,0-.2-.2H22.91a.2.2,0,0,0-.2.2v1.3a.2.2,0,0,0,.2.2h1.15A.2.2,0,0,0,24.26,15.77Z"/></g></svg>