<svg xmlns="http://www.w3.org/2000/svg" viewBox="0 0 32 32"><defs><style>.cls-1{fill:#00355f;}.cls-2{fill:#fff;}</style></defs><title>nature-site-blue</title><g id="back"><circle class="cls-1" cx="16" cy="16" r="15"/></g><g id="Layer_1" data-name="Layer 1"><path class="cls-2" d="M4.24,19A.23.23,0,0,1,4,18.81a.24.24,0,0,1,.17-.3c1-.25,1.6-1.47,2.21-2.65.76-1.45,1.54-2.95,3-2.86s2.13,1.75,2.74,3.21c.49,1.17,1,2.27,1.65,2.3a.24.24,0,0,1,.23.25.25.25,0,0,1-.25.24c-1,0-1.52-1.28-2.07-2.59S10.5,13.57,9.35,13.5s-1.82,1.22-2.54,2.59S5.46,18.69,4.3,19Z"/><path class="cls-2" d="M27.72,19.32c-.84,0-1.39-1.3-2-2.64C25,15,24.19,13.11,22.46,13s-2.68,1.62-3.59,3.28c-.74,1.35-1.51,2.76-2.65,3a.28.28,0,0,0-.21.34.29.29,0,0,0,.28.22h.07A2.44,2.44,0,0,0,17,19.6h-.71c2.71-.68,3.23-6.49,6.15-6.31s3.07,6.23,5.27,6.31h-.82a1.56,1.56,0,0,0,.81.29.3.3,0,0,0,.3-.28A.28.28,0,0,0,27.72,19.32Z"/><path class="cls-2" d="M22.44,13.29c-2.92-.18-3.44,5.63-6.15,6.31H17a7.55,7.55,0,0,0,2.38-3.05c.86-1.58,1.67-3.06,3-3s2.1,1.74,2.8,3.34a6.47,6.47,0,0,0,1.67,2.69h.82C25.51,19.52,25.36,13.47,22.44,13.29Z"/><path class="cls-1" d="M7.42,21.51c4-1.19,5-10.85,9.27-10.53s4.62,10.78,7.84,10.93"/><path class="cls-2" d="M7.42,22A.44.44,0,0,1,7,21.63a.5.5,0,0,1,.31-.6c1.68-.51,3.07-2.48,4.15-4.85,1.33-2.89,2.7-5.88,5.24-5.7s3.76,3.5,4.82,6.41c.85,2.33,1.83,4.05,3.07,4.11a.47.47,0,0,1,.4.51.45.45,0,0,1-.44.48c-1.76-.08-2.84-2.08-3.8-4.71-1-2.78-2.07-5.66-4.1-5.81s-3.19,2.44-4.45,5.19C11,19.21,9.56,21.38,7.52,22A.18.18,0,0,1,7.42,22Z"/></g></svg>