<svg xmlns="http://www.w3.org/2000/svg" viewBox="0 0 32 32"><defs><style>.cls-1{fill:#fff;}.cls-2{fill:#00355f;}</style></defs><title>unesco-white</title><g id="back"><circle class="cls-1" cx="16.13" cy="16" r="15"/></g><g id="graphic"><path class="cls-2" d="M13.82,25.3l-.18,0a.68.68,0,0,1-.48-.49l-.63-2.46L12.36,22l.08.28L10,23a.67.67,0,0,1-.84-.83l.69-2.44,0-.1L7.34,19a.65.65,0,0,1-.49-.49A.63.63,0,0,1,7,17.83l1.82-1.77v-.12L7,14.18a.69.69,0,0,1-.18-.67A.66.66,0,0,1,7.34,13l2.45-.62.35-.18-.29.08L9.16,9.87a.67.67,0,0,1,.17-.66A.69.69,0,0,1,10,9l2.44.69.09-.06.63-2.46a.67.67,0,0,1,1.14-.3l1.77,1.81.33.21-.22-.21L18,6.9a.69.69,0,0,1,.66-.18.68.68,0,0,1,.48.49l.63,2.46.09.06L22.25,9a.69.69,0,0,1,.67.17.67.67,0,0,1,.17.66l-.69,2.44.06.1,2.45.62a.66.66,0,0,1,.49.48.69.69,0,0,1-.18.67L23.4,15.94l-.21.33.21-.21,1.82,1.77a.63.63,0,0,1,.18.65.65.65,0,0,1-.49.49l-2.46.62-.34.18.29-.08.69,2.44a.67.67,0,0,1-.84.83l-2.44-.69-.09.06-.63,2.46a.67.67,0,0,1-1.14.3l-1.77-1.81-.33-.21.22.21L14.3,25.09A.64.64,0,0,1,13.82,25.3Zm-1.36-3.63a.69.69,0,0,1,.34.09.71.71,0,0,1,.32.42l.62,2.46a.08.08,0,0,0,0,.06.12.12,0,0,0,.08,0l1.77-1.82a.68.68,0,0,1,1,0l1.77,1.82a.12.12,0,0,0,.08,0,.08.08,0,0,0,.05-.06l.62-2.46a.71.71,0,0,1,.32-.42A.68.68,0,0,1,20,21.7l2.45.69a.07.07,0,0,0,.07,0,.07.07,0,0,0,0-.08l-.69-2.44a.63.63,0,0,1,.07-.52.65.65,0,0,1,.42-.32l2.46-.62a.07.07,0,0,0,.05-.06.07.07,0,0,0,0-.08L23,16.49a.7.7,0,0,1-.2-.49.68.68,0,0,1,.2-.49l1.82-1.76a.07.07,0,0,0,0-.08.07.07,0,0,0-.05-.06L22.31,13a.65.65,0,0,1-.42-.32.63.63,0,0,1-.07-.52l.69-2.44a.07.07,0,0,0,0-.08.07.07,0,0,0-.07,0L20,10.3a.7.7,0,0,1-.53-.06.68.68,0,0,1-.32-.42l-.62-2.46a.08.08,0,0,0-.05-.06.12.12,0,0,0-.08,0L16.61,9.14a.68.68,0,0,1-1,0L13.87,7.32a.12.12,0,0,0-.08,0,.08.08,0,0,0,0,.06l-.62,2.46a.68.68,0,0,1-.32.42.7.7,0,0,1-.53.06L9.83,9.61a.07.07,0,0,0-.07,0,.07.07,0,0,0,0,.08l.69,2.44a.63.63,0,0,1-.07.52.65.65,0,0,1-.42.32l-2.46.62a.07.07,0,0,0-.05.06.07.07,0,0,0,0,.08l1.82,1.76a.68.68,0,0,1,.2.49.7.7,0,0,1-.2.49L7.45,18.25a.07.07,0,0,0,0,.08.07.07,0,0,0,.05.06L9.94,19a.65.65,0,0,1,.42.32.63.63,0,0,1,.07.52l-.69,2.44a.07.07,0,0,0,0,.08l.07,0,2.44-.69Z"/><path class="cls-2" d="M16.12,20.8a4.8,4.8,0,1,1,4.8-4.8A4.8,4.8,0,0,1,16.12,20.8Zm0-9A4.2,4.2,0,1,0,20.33,16,4.21,4.21,0,0,0,16.12,11.8Z"/></g></svg>